<svg width="1642" height="990" xmlns="http://www.w3.org/2000/svg" xmlns:xlink="http://www.w3.org/1999/xlink" overflow="hidden"><defs><clipPath id="clip0"><rect x="478" y="1279" width="1642" height="990"/></clipPath><clipPath id="clip1"><rect x="478" y="1278" width="1641" height="990"/></clipPath><clipPath id="clip2"><rect x="478" y="1278" width="1641" height="990"/></clipPath><clipPath id="clip3"><rect x="629" y="1335" width="1444" height="616"/></clipPath><clipPath id="clip4"><rect x="629" y="1335" width="1444" height="616"/></clipPath><clipPath id="clip5"><rect x="478" y="1278" width="1641" height="990"/></clipPath><clipPath id="clip6"><rect x="478" y="1278" width="1641" height="990"/></clipPath><clipPath id="clip7"><rect x="478" y="1278" width="1641" height="990"/></clipPath><clipPath id="clip8"><rect x="478" y="1278" width="1641" height="990"/></clipPath><clipPath id="clip9"><rect x="478" y="1278" width="1641" height="990"/></clipPath><clipPath id="clip10"><rect x="478" y="1278" width="1641" height="990"/></clipPath><clipPath id="clip11"><rect x="478" y="1278" width="1641" height="990"/></clipPath><clipPath id="clip12"><rect x="478" y="1278" width="1641" height="990"/></clipPath><clipPath id="clip13"><rect x="478" y="1278" width="1641" height="990"/></clipPath><clipPath id="clip14"><rect x="478" y="1278" width="1641" height="990"/></clipPath><clipPath id="clip15"><rect x="478" y="1278" width="1641" height="990"/></clipPath><clipPath id="clip16"><rect x="478" y="1278" width="1641" height="990"/></clipPath><clipPath id="clip17"><rect x="478" y="1278" width="1641" height="990"/></clipPath><clipPath id="clip18"><rect x="478" y="1278" width="1641" height="990"/></clipPath><clipPath id="clip19"><rect x="478" y="1278" width="1641" height="990"/></clipPath><clipPath id="clip20"><rect x="478" y="1278" width="1641" height="990"/></clipPath><clipPath id="clip21"><rect x="478" y="1278" width="1641" height="990"/></clipPath><clipPath id="clip22"><rect x="478" y="1278" width="1641" height="990"/></clipPath><clipPath id="clip23"><rect x="478" y="1278" width="1641" height="990"/></clipPath><clipPath id="clip24"><rect x="478" y="1278" width="1641" height="990"/></clipPath><clipPath id="clip25"><rect x="478" y="1278" width="1641" height="990"/></clipPath><clipPath id="clip26"><rect x="478" y="1278" width="1641" height="990"/></clipPath><clipPath id="clip27"><rect x="478" y="1278" width="1641" height="990"/></clipPath><clipPath id="clip28"><rect x="478" y="1278" width="1641" height="990"/></clipPath><clipPath id="clip29"><rect x="478" y="1278" width="1641" height="990"/></clipPath><clipPath id="clip30"><rect x="478" y="1278" width="1641" height="990"/></clipPath><clipPath id="clip31"><rect x="478" y="1278" width="1641" height="990"/></clipPath></defs><g clip-path="url(#clip0)" transform="translate(-478 -1279)"><g clip-path="url(#clip1)"><path d="M629.5 1825.56 2069.5 1825.56M629.5 1703.56 2069.5 1703.56M629.5 1580.55 2069.5 1580.55M629.5 1457.55 2069.5 1457.55M629.5 1335.5 2069.5 1335.5" stroke="#7F7F7F" stroke-width="3.4375" stroke-linejoin="round" stroke-miterlimit="10" stroke-dasharray="13.75 10.3125" fill="none"/></g><g clip-path="url(#clip2)"><rect x="629.5" y="1335.5" width="1440" height="613" stroke="#000000" stroke-width="3.4375" stroke-linejoin="round" stroke-miterlimit="10" fill="none"/></g><g clip-path="url(#clip3)"><path d="M747.525 1647.55 854.528 1647.55 854.528 1948.5 747.525 1948.5ZM1227.54 1760.56 1334.54 1760.56 1334.54 1948.5 1227.54 1948.5ZM1707.56 1842.56 1814.56 1842.56 1814.56 1948.5 1707.56 1948.5Z" stroke="#000000" stroke-width="3.4375" stroke-linejoin="round" stroke-miterlimit="10" fill="#4472C4"/></g><g clip-path="url(#clip4)"><path d="M883.529 1436.55 991.533 1436.55 991.533 1948.5 883.529 1948.5ZM1363.54 1502.55 1471.55 1502.55 1471.55 1948.5 1363.54 1948.5ZM1843.56 1641.55 1951.56 1641.55 1951.56 1948.5 1843.56 1948.5Z" stroke="#000000" stroke-width="3.4375" stroke-linejoin="round" stroke-miterlimit="10" fill="#ED7D31"/></g><g clip-path="url(#clip5)"><path d="M629.5 1948.5 2069.5 1948.5" stroke="#000000" stroke-width="3.4375" stroke-linejoin="round" stroke-miterlimit="10" fill="none" fill-rule="evenodd"/></g><g clip-path="url(#clip6)"><rect x="710.5" y="1552.5" width="181" height="81.0001" stroke="#000000" stroke-width="3.4375" stroke-linejoin="round" stroke-miterlimit="10" fill="#DAE3F3"/></g><g clip-path="url(#clip7)"><text fill="#404040" font-family="Calibri,Calibri_MSFontService,sans-serif" font-weight="400" font-size="55" transform="matrix(1 0 0 1 724.286 1611)">0.4912</text></g><g clip-path="url(#clip8)"><rect x="1190.5" y="1666.5" width="181" height="81.0001" stroke="#000000" stroke-width="3.4375" stroke-linejoin="round" stroke-miterlimit="10" fill="#DAE3F3"/></g><g clip-path="url(#clip9)"><text fill="#404040" font-family="Calibri,Calibri_MSFontService,sans-serif" font-weight="400" font-size="55" transform="matrix(1 0 0 1 1204.42 1725)">0.3058</text></g><g clip-path="url(#clip10)"><rect x="1670.5" y="1748.5" width="181" height="80.9998" stroke="#000000" stroke-width="3.4375" stroke-linejoin="round" stroke-miterlimit="10" fill="#DAE3F3"/></g><g clip-path="url(#clip11)"><text fill="#404040" font-family="Calibri,Calibri_MSFontService,sans-serif" font-weight="400" font-size="55" transform="matrix(1 0 0 1 1684.55 1807)">0.1719</text></g><g clip-path="url(#clip12)"><rect x="847.5" y="1341.5" width="180" height="80.9998" stroke="#000000" stroke-width="3.4375" stroke-linejoin="round" stroke-miterlimit="10" fill="#FBE5D6"/></g><g clip-path="url(#clip13)"><text fill="#404040" font-family="Calibri,Calibri_MSFontService,sans-serif" font-weight="400" font-size="55" transform="matrix(1 0 0 1 861.005 1401)">0.8346</text></g><g clip-path="url(#clip14)"><rect x="1327.5" y="1407.5" width="181" height="80.9998" stroke="#000000" stroke-width="3.4375" stroke-linejoin="round" stroke-miterlimit="10" fill="#FBE5D6"/></g><g clip-path="url(#clip15)"><text fill="#404040" font-family="Calibri,Calibri_MSFontService,sans-serif" font-weight="400" font-size="55" transform="matrix(1 0 0 1 1341.14 1467)">0.7272</text></g><g clip-path="url(#clip16)"><rect x="1849.5" y="1547.5" width="97.0002" height="80.9998" stroke="#000000" stroke-width="3.4375" stroke-linejoin="round" stroke-miterlimit="10" fill="#FBE5D6"/></g><g clip-path="url(#clip17)"><text fill="#404040" font-family="Calibri,Calibri_MSFontService,sans-serif" font-weight="400" font-size="55" transform="matrix(1 0 0 1 1863.07 1606)">0.5</text></g><g clip-path="url(#clip18)"><text fill="#595959" font-family="Calibri,Calibri_MSFontService,sans-serif" font-weight="400" font-size="55" transform="matrix(1 0 0 1 550.296 1964)">0</text></g><g clip-path="url(#clip19)"><text fill="#595959" font-family="Calibri,Calibri_MSFontService,sans-serif" font-weight="400" font-size="55" transform="matrix(1 0 0 1 508.542 1841)">0.2</text></g><g clip-path="url(#clip20)"><text fill="#595959" font-family="Calibri,Calibri_MSFontService,sans-serif" font-weight="400" font-size="55" transform="matrix(1 0 0 1 508.542 1718)">0.4</text></g><g clip-path="url(#clip21)"><text fill="#595959" font-family="Calibri,Calibri_MSFontService,sans-serif" font-weight="400" font-size="55" transform="matrix(1 0 0 1 508.542 1596)">0.6</text></g><g clip-path="url(#clip22)"><text fill="#595959" font-family="Calibri,Calibri_MSFontService,sans-serif" font-weight="400" font-size="55" transform="matrix(1 0 0 1 508.542 1473)">0.8</text></g><g clip-path="url(#clip23)"><text fill="#595959" font-family="Calibri,Calibri_MSFontService,sans-serif" font-weight="400" font-size="55" transform="matrix(1 0 0 1 550.296 1351)">1</text></g><g clip-path="url(#clip24)"><text fill="#595959" font-family="Calibri,Calibri_MSFontService,sans-serif" font-weight="400" font-size="55" transform="matrix(1 0 0 1 746.697 2035)">WiFi Office</text></g><g clip-path="url(#clip25)"><text fill="#595959" font-family="Calibri,Calibri_MSFontService,sans-serif" font-weight="400" font-size="55" transform="matrix(1 0 0 1 1230.4 2035)">Wifi Home</text></g><g clip-path="url(#clip26)"><text fill="#595959" font-family="Calibri,Calibri_MSFontService,sans-serif" font-weight="400" font-size="55" transform="matrix(1 0 0 1 1708.55 2035)">Piezo Daily</text></g><g clip-path="url(#clip27)"><text fill="#595959" font-family="Calibri,Calibri_MSFontService,sans-serif" font-weight="400" font-size="55" transform="matrix(1 0 0 1 1706.09 2102)">Movement</text></g><g clip-path="url(#clip28)"><rect x="643.5" y="2179.5" width="29.9999" height="30.0002" stroke="#000000" stroke-width="3.4375" stroke-linejoin="round" stroke-miterlimit="10" fill="#4472C4"/></g><g clip-path="url(#clip29)"><text fill="#595959" font-family="Calibri,Calibri_MSFontService,sans-serif" font-weight="400" font-size="55" transform="matrix(1 0 0 1 686.618 2210)">% Completion in Origin</text></g><g clip-path="url(#clip30)"><rect x="1281.5" y="2179.5" width="29.9999" height="30.0002" stroke="#000000" stroke-width="3.4375" stroke-linejoin="round" stroke-miterlimit="10" fill="#ED7D31"/></g><g clip-path="url(#clip31)"><text fill="#595959" font-family="Calibri,Calibri_MSFontService,sans-serif" font-weight="400" font-size="55" transform="matrix(1 0 0 1 1324.66 2210)">% Completion in Our Scheme</text></g></g></svg>